# Blender 3.4.1
# www.blender.org
mtllib cube.mtl
o Cube
v 0.900000 0.900000 -1.000000
v 0.900000 1.000000 -0.900000
v 1.000000 0.900000 -0.900000
v 0.900000 0.938268 -0.992388
v 0.900000 0.970711 -0.970711
v 0.938268 0.900000 -0.992388
v 0.939227 0.939227 -0.983201
v 0.937237 0.965625 -0.965625
v 0.957735 0.957735 -0.957735
v 0.938268 0.992388 -0.900000
v 0.970711 0.970711 -0.900000
v 0.900000 0.992388 -0.938268
v 0.939227 0.983201 -0.939227
v 0.965625 0.965625 -0.937237
v 0.992388 0.900000 -0.938268
v 0.970711 0.900000 -0.970711
v 0.992388 0.938268 -0.900000
v 0.983201 0.939227 -0.939227
v 0.965625 0.937237 -0.965625
v 0.900000 -1.000000 -0.900000
v 0.900000 -0.900000 -1.000000
v 1.000000 -0.900000 -0.900000
v 0.900000 -0.992388 -0.938268
v 0.900000 -0.970711 -0.970711
v 0.938268 -0.992388 -0.900000
v 0.939227 -0.983201 -0.939227
v 0.937237 -0.965625 -0.965625
v 0.957735 -0.957735 -0.957735
v 0.938268 -0.900000 -0.992388
v 0.970711 -0.900000 -0.970711
v 0.900000 -0.938268 -0.992388
v 0.939227 -0.939227 -0.983201
v 0.965625 -0.937237 -0.965625
v 0.992388 -0.938268 -0.900000
v 0.970711 -0.970711 -0.900000
v 0.992388 -0.900000 -0.938268
v 0.983201 -0.939227 -0.939227
v 0.965625 -0.965625 -0.937237
v 1.000000 0.900000 0.900000
v 0.900000 1.000000 0.900000
v 0.900000 0.900000 1.000000
v 0.992388 0.938268 0.900000
v 0.970711 0.970711 0.900000
v 0.992388 0.900000 0.938268
v 0.983201 0.939227 0.939227
v 0.965625 0.965625 0.937237
v 0.957735 0.957735 0.957735
v 0.900000 0.992388 0.938268
v 0.900000 0.970711 0.970711
v 0.938268 0.992388 0.900000
v 0.939227 0.983201 0.939227
v 0.937237 0.965625 0.965625
v 0.938268 0.900000 0.992388
v 0.970711 0.900000 0.970711
v 0.900000 0.938268 0.992388
v 0.939227 0.939227 0.983201
v 0.965625 0.937237 0.965625
v 1.000000 -0.900000 0.900000
v 0.900000 -0.900000 1.000000
v 0.900000 -1.000000 0.900000
v 0.992388 -0.900000 0.938268
v 0.970711 -0.900000 0.970711
v 0.992388 -0.938268 0.900000
v 0.983201 -0.939227 0.939227
v 0.965625 -0.937237 0.965625
v 0.957735 -0.957735 0.957735
v 0.900000 -0.938268 0.992388
v 0.900000 -0.970711 0.970711
v 0.938268 -0.900000 0.992388
v 0.939227 -0.939227 0.983201
v 0.937237 -0.965625 0.965625
v 0.938268 -0.992388 0.900000
v 0.970711 -0.970711 0.900000
v 0.900000 -0.992388 0.938268
v 0.939227 -0.983201 0.939227
v 0.965625 -0.965625 0.937237
v -0.900000 0.900000 -1.000000
v -1.000000 0.900000 -0.900000
v -0.900000 1.000000 -0.900000
v -0.938268 0.900000 -0.992388
v -0.970711 0.900000 -0.970711
v -0.900000 0.938268 -0.992388
v -0.939227 0.939227 -0.983201
v -0.965625 0.937237 -0.965625
v -0.957735 0.957735 -0.957735
v -0.992388 0.938268 -0.900000
v -0.970711 0.970711 -0.900000
v -0.992388 0.900000 -0.938268
v -0.983201 0.939227 -0.939227
v -0.965625 0.965625 -0.937237
v -0.900000 0.992388 -0.938268
v -0.900000 0.970711 -0.970711
v -0.938268 0.992388 -0.900000
v -0.939227 0.983201 -0.939227
v -0.937237 0.965625 -0.965625
v -1.000000 -0.900000 -0.900000
v -0.900000 -0.900000 -1.000000
v -0.900000 -1.000000 -0.900000
v -0.992388 -0.900000 -0.938268
v -0.970711 -0.900000 -0.970711
v -0.992388 -0.938268 -0.900000
v -0.983201 -0.939227 -0.939227
v -0.965625 -0.937237 -0.965625
v -0.957735 -0.957735 -0.957735
v -0.900000 -0.938268 -0.992388
v -0.900000 -0.970711 -0.970711
v -0.938268 -0.900000 -0.992388
v -0.939227 -0.939227 -0.983201
v -0.937237 -0.965625 -0.965625
v -0.938268 -0.992388 -0.900000
v -0.970711 -0.970711 -0.900000
v -0.900000 -0.992388 -0.938268
v -0.939227 -0.983201 -0.939227
v -0.965625 -0.965625 -0.937237
v -1.000000 0.900000 0.900000
v -0.900000 0.900000 1.000000
v -0.900000 1.000000 0.900000
v -0.992388 0.900000 0.938268
v -0.970711 0.900000 0.970711
v -0.992388 0.938268 0.900000
v -0.983201 0.939227 0.939227
v -0.965625 0.937237 0.965625
v -0.957735 0.957735 0.957735
v -0.900000 0.938268 0.992388
v -0.900000 0.970711 0.970711
v -0.938268 0.900000 0.992388
v -0.939227 0.939227 0.983201
v -0.937237 0.965625 0.965625
v -0.938268 0.992388 0.900000
v -0.970711 0.970711 0.900000
v -0.900000 0.992388 0.938268
v -0.939227 0.983201 0.939227
v -0.965625 0.965625 0.937237
v -0.900000 -1.000000 0.900000
v -0.900000 -0.900000 1.000000
v -1.000000 -0.900000 0.900000
v -0.900000 -0.992388 0.938268
v -0.900000 -0.970711 0.970711
v -0.938268 -0.992388 0.900000
v -0.939227 -0.983201 0.939227
v -0.937237 -0.965625 0.965625
v -0.957735 -0.957735 0.957735
v -0.938268 -0.900000 0.992388
v -0.970711 -0.900000 0.970711
v -0.900000 -0.938268 0.992388
v -0.939227 -0.939227 0.983201
v -0.965625 -0.937237 0.965625
v -0.992388 -0.938268 0.900000
v -0.970711 -0.970711 0.900000
v -0.992388 -0.900000 0.938268
v -0.983201 -0.939227 0.939227
v -0.965625 -0.965625 0.937237
vn -0.0000 -1.0000 -0.0000
vn -1.0000 -0.0000 -0.0000
vn -0.0000 -0.0000 1.0000
vn -0.0000 1.0000 -0.0000
vn 1.0000 -0.0000 -0.0000
vn 0.2049 0.2049 -0.9571
vn 0.1818 0.5500 -0.8152
vn 0.5500 0.1818 -0.8152
vn 0.4931 0.4931 -0.7167
vn 0.2049 0.9571 -0.2049
vn 0.5500 0.8152 -0.1818
vn 0.1818 0.8152 -0.5500
vn 0.4931 0.7167 -0.4931
vn 0.9571 0.2049 -0.2049
vn 0.8152 0.1818 -0.5500
vn 0.8152 0.5500 -0.1818
vn 0.7167 0.4931 -0.4931
vn 0.2049 -0.9571 -0.2049
vn 0.1818 -0.8152 -0.5500
vn 0.5500 -0.8152 -0.1818
vn 0.4931 -0.7167 -0.4931
vn 0.2049 -0.2049 -0.9571
vn 0.5500 -0.1818 -0.8152
vn 0.1818 -0.5500 -0.8152
vn 0.4931 -0.4931 -0.7167
vn 0.9571 -0.2049 -0.2049
vn 0.8152 -0.5500 -0.1818
vn 0.8152 -0.1818 -0.5500
vn 0.7167 -0.4931 -0.4931
vn 0.9571 0.2049 0.2049
vn 0.8152 0.5500 0.1818
vn 0.8152 0.1818 0.5500
vn 0.7167 0.4931 0.4931
vn 0.2049 0.9571 0.2049
vn 0.1818 0.8152 0.5500
vn 0.5500 0.8152 0.1818
vn 0.4931 0.7167 0.4931
vn 0.2049 0.2049 0.9571
vn 0.5500 0.1818 0.8152
vn 0.1818 0.5500 0.8152
vn 0.4931 0.4931 0.7167
vn 0.9571 -0.2049 0.2049
vn 0.8152 -0.1818 0.5500
vn 0.8152 -0.5500 0.1818
vn 0.7167 -0.4931 0.4931
vn 0.2049 -0.2049 0.9571
vn 0.1818 -0.5500 0.8152
vn 0.5500 -0.1818 0.8152
vn 0.4931 -0.4931 0.7167
vn 0.2049 -0.9571 0.2049
vn 0.5500 -0.8152 0.1818
vn 0.1818 -0.8152 0.5500
vn 0.4931 -0.7167 0.4931
vn -0.2049 0.2049 -0.9571
vn -0.5500 0.1818 -0.8152
vn -0.1818 0.5500 -0.8152
vn -0.4931 0.4931 -0.7167
vn -0.9571 0.2049 -0.2049
vn -0.8152 0.5500 -0.1818
vn -0.8152 0.1818 -0.5500
vn -0.7167 0.4931 -0.4931
vn -0.2049 0.9571 -0.2049
vn -0.1818 0.8152 -0.5500
vn -0.5500 0.8152 -0.1818
vn -0.4931 0.7167 -0.4931
vn -0.9571 -0.2049 -0.2049
vn -0.8152 -0.1818 -0.5500
vn -0.8152 -0.5500 -0.1818
vn -0.7167 -0.4931 -0.4931
vn -0.2049 -0.2049 -0.9571
vn -0.1818 -0.5500 -0.8152
vn -0.5500 -0.1818 -0.8152
vn -0.4931 -0.4931 -0.7167
vn -0.2049 -0.9571 -0.2049
vn -0.5500 -0.8152 -0.1818
vn -0.1818 -0.8152 -0.5500
vn -0.4931 -0.7167 -0.4931
vn -0.9571 0.2049 0.2049
vn -0.8152 0.1818 0.5500
vn -0.8152 0.5500 0.1818
vn -0.7167 0.4931 0.4931
vn -0.2049 0.2049 0.9571
vn -0.1818 0.5500 0.8152
vn -0.5500 0.1818 0.8152
vn -0.4931 0.4931 0.7167
vn -0.2049 0.9571 0.2049
vn -0.5500 0.8152 0.1818
vn -0.1818 0.8152 0.5500
vn -0.4931 0.7167 0.4931
vn -0.2049 -0.9571 0.2049
vn -0.1818 -0.8152 0.5500
vn -0.5500 -0.8152 0.1818
vn -0.4931 -0.7167 0.4931
vn -0.2049 -0.2049 0.9571
vn -0.5500 -0.1818 0.8152
vn -0.1818 -0.5500 0.8152
vn -0.4931 -0.4931 0.7167
vn -0.9571 -0.2049 0.2049
vn -0.8152 -0.5500 0.1818
vn -0.8152 -0.1818 0.5500
vn -0.7167 -0.4931 0.4931
vn -0.1951 -0.9808 -0.0000
vn -0.5556 -0.8315 -0.0000
vn -0.8315 -0.5556 -0.0000
vn -0.9808 -0.1951 -0.0000
vn -0.0000 -0.9808 -0.1951
vn -0.0000 -0.8315 -0.5556
vn -0.0000 -0.5556 -0.8315
vn -0.0000 -0.1951 -0.9808
vn 0.9808 -0.0000 -0.1951
vn 0.8315 -0.0000 -0.5556
vn 0.5556 -0.0000 -0.8315
vn 0.1951 -0.0000 -0.9808
vn -0.1951 -0.0000 0.9808
vn -0.5556 -0.0000 0.8315
vn -0.8315 -0.0000 0.5556
vn -0.9808 -0.0000 0.1951
vn 0.1951 -0.0000 0.9808
vn 0.5556 -0.0000 0.8315
vn 0.8315 -0.0000 0.5556
vn 0.9808 -0.0000 0.1951
vn -0.1951 -0.0000 -0.9808
vn -0.5556 -0.0000 -0.8315
vn -0.8315 -0.0000 -0.5556
vn -0.9808 -0.0000 -0.1951
vn -0.0000 0.9808 0.1951
vn -0.0000 0.8315 0.5556
vn -0.0000 0.5556 0.8315
vn -0.0000 0.1951 0.9808
vn 0.1951 0.9808 -0.0000
vn 0.5556 0.8315 -0.0000
vn 0.8315 0.5556 -0.0000
vn 0.9808 0.1951 -0.0000
vn -0.0000 -0.9808 0.1951
vn -0.0000 -0.8315 0.5556
vn -0.0000 -0.5556 0.8315
vn -0.0000 -0.1951 0.9808
vn -0.1951 0.9808 -0.0000
vn -0.5556 0.8315 -0.0000
vn -0.8315 0.5556 -0.0000
vn -0.9808 0.1951 -0.0000
vn -0.0000 0.9808 -0.1951
vn -0.0000 0.8315 -0.5556
vn -0.0000 0.5556 -0.8315
vn -0.0000 0.1951 -0.9808
vn 0.1951 -0.9808 -0.0000
vn 0.5556 -0.8315 -0.0000
vn 0.8315 -0.5556 -0.0000
vn 0.9808 -0.1951 -0.0000
vn -0.0000 -0.0000 -1.0000
vt 0.612500 0.487500
vt 0.637500 0.512500
vt 0.612500 0.512500
vt 0.617284 0.487500
vt 0.637500 0.500000
vt 0.625000 0.487500
vt 0.612500 0.492284
vt 0.617403 0.492403
vt 0.625000 0.492155
vt 0.632845 0.500000
vt 0.623239 0.500000
vt 0.632716 0.512500
vt 0.625000 0.512500
vt 0.637500 0.507716
vt 0.632597 0.507597
vt 0.625000 0.507845
vt 0.612500 0.507717
vt 0.612500 0.500000
vt 0.617284 0.512500
vt 0.617403 0.507597
vt 0.617155 0.500000
vt 0.362500 0.512500
vt 0.387500 0.487500
vt 0.387500 0.512500
vt 0.362500 0.507717
vt 0.362500 0.500000
vt 0.375000 0.487500
vt 0.367284 0.512500
vt 0.367403 0.507597
vt 0.367155 0.500000
vt 0.375000 0.492155
vt 0.375000 0.501761
vt 0.387500 0.492284
vt 0.387500 0.500000
vt 0.382716 0.487500
vt 0.382597 0.492403
vt 0.382845 0.500000
vt 0.382716 0.512500
vt 0.375000 0.512500
vt 0.387500 0.507716
vt 0.382597 0.507597
vt 0.375000 0.507845
vt 0.612500 0.737500
vt 0.637500 0.737500
vt 0.612500 0.762500
vt 0.617284 0.737500
vt 0.625000 0.737500
vt 0.612500 0.742284
vt 0.617403 0.742403
vt 0.625000 0.742155
vt 0.625000 0.748239
vt 0.637500 0.742284
vt 0.637500 0.750000
vt 0.625000 0.762500
vt 0.632716 0.737500
vt 0.632597 0.742403
vt 0.632845 0.750000
vt 0.625000 0.757845
vt 0.612500 0.757716
vt 0.612500 0.750000
vt 0.617284 0.762500
vt 0.617403 0.757597
vt 0.617155 0.750000
vt 0.387500 0.737500
vt 0.387500 0.762500
vt 0.362500 0.737500
vt 0.387500 0.742284
vt 0.387500 0.750000
vt 0.382716 0.737500
vt 0.382597 0.742403
vt 0.382845 0.750000
vt 0.376761 0.750000
vt 0.382716 0.762500
vt 0.362500 0.750000
vt 0.375000 0.762500
vt 0.387500 0.757716
vt 0.382597 0.757597
vt 0.375000 0.757845
vt 0.367155 0.750000
vt 0.367284 0.737500
vt 0.375000 0.737500
vt 0.362500 0.742284
vt 0.367403 0.742403
vt 0.375000 0.742155
vt 0.612500 0.262500
vt 0.612500 0.237500
vt 0.862500 0.512500
vt 0.612500 0.257716
vt 0.612500 0.250000
vt 0.617284 0.262500
vt 0.617403 0.257597
vt 0.617155 0.250000
vt 0.619717 0.250000
vt 0.625000 0.244717
vt 0.869717 0.500000
vt 0.617284 0.237500
vt 0.875000 0.512500
vt 0.625000 0.237500
vt 0.612500 0.242284
vt 0.617403 0.242403
vt 0.625000 0.242155
vt 0.875000 0.507845
vt 0.862500 0.507717
vt 0.862500 0.500000
vt 0.625000 0.262500
vt 0.867284 0.512500
vt 0.867403 0.507597
vt 0.625000 0.257845
vt 0.867155 0.500000
vt 0.387500 0.237500
vt 0.387500 0.262500
vt 0.137500 0.512500
vt 0.387500 0.242284
vt 0.387500 0.250000
vt 0.382716 0.237500
vt 0.382597 0.242403
vt 0.382845 0.250000
vt 0.380283 0.250000
vt 0.375000 0.255283
vt 0.125000 0.505283
vt 0.382716 0.262500
vt 0.137500 0.500000
vt 0.375000 0.262500
vt 0.387500 0.257716
vt 0.382597 0.257597
vt 0.375000 0.257845
vt 0.132845 0.500000
vt 0.132716 0.512500
vt 0.125000 0.512500
vt 0.375000 0.237500
vt 0.137500 0.507716
vt 0.132597 0.507597
vt 0.375000 0.242155
vt 0.125000 0.507845
vt 0.612500 0.012500
vt 0.612500 0.987500
vt 0.862500 0.737500
vt 0.612500 0.007716
vt 0.612500 1.000000
vt 0.612500 0.000000
vt 0.617284 0.012500
vt 0.617403 0.007597
vt 0.617155 0.000000
vt 0.617155 1.000000
vt 0.619717 0.000000
vt 0.625000 0.994717
vt 0.875000 0.744717
vt 0.617284 0.987500
vt 0.862500 0.750000
vt 0.625000 0.987500
vt 0.612500 0.992284
vt 0.617403 0.992403
vt 0.625000 0.992155
vt 0.867155 0.750000
vt 0.867284 0.737500
vt 0.875000 0.737500
vt 0.625000 0.012500
vt 0.862500 0.742284
vt 0.867403 0.742403
vt 0.625000 0.007845
vt 0.875000 0.742155
vt 0.137500 0.737500
vt 0.387500 0.987500
vt 0.387500 0.012500
vt 0.137500 0.742284
vt 0.137500 0.750000
vt 0.375000 0.987500
vt 0.132716 0.737500
vt 0.132597 0.742403
vt 0.132845 0.750000
vt 0.375000 0.992155
vt 0.130283 0.750000
vt 0.380283 1.000000
vt 0.375000 0.005283
vt 0.387500 0.992284
vt 0.387500 1.000000
vt 0.387500 0.000000
vt 0.382716 0.987500
vt 0.382597 0.992403
vt 0.382845 1.000000
vt 0.382845 0.000000
vt 0.382716 0.012500
vt 0.125000 0.737500
vt 0.375000 0.012500
vt 0.387500 0.007716
vt 0.382597 0.007597
vt 0.125000 0.742155
vt 0.375000 0.007845
s 0
usemtl Material
f 98/112/1 20/22/1 60/66/1 134/162/1
f 136/164/2 115/135/2 78/86/2 96/110/2
f 59/65/3 41/45/3 116/136/3 135/163/3
f 2/2/4 79/87/4 117/137/4 40/44/4
f 22/24/5 3/3/5 39/43/5 58/64/5
f 1/1/6 4/4/6 7/8/6 6/7/6
f 4/4/7 5/6/7 8/9/7 7/8/7
f 6/7/8 7/8/8 19/21/8 16/18/8
f 7/8/9 8/9/9 9/11/9 19/21/9
f 2/2/10 10/12/10 13/15/10 12/14/10
f 10/12/11 11/13/11 14/16/11 13/15/11
f 12/14/12 13/15/12 8/10/12 5/5/12
f 13/15/13 14/16/13 9/11/13 8/10/13
f 3/3/14 15/17/14 18/20/14 17/19/14
f 15/17/15 16/18/15 19/21/15 18/20/15
f 17/19/16 18/20/16 14/16/16 11/13/16
f 18/20/17 19/21/17 9/11/17 14/16/17
f 20/22/18 23/25/18 26/29/18 25/28/18
f 23/25/19 24/26/19 27/30/19 26/29/19
f 25/28/20 26/29/20 38/42/20 35/39/20
f 26/29/21 27/30/21 28/32/21 38/42/21
f 21/23/22 29/33/22 32/36/22 31/35/22
f 29/33/23 30/34/23 33/37/23 32/36/23
f 31/35/24 32/36/24 27/31/24 24/27/24
f 32/36/25 33/37/25 28/32/25 27/31/25
f 22/24/26 34/38/26 37/41/26 36/40/26
f 34/38/27 35/39/27 38/42/27 37/41/27
f 36/40/28 37/41/28 33/37/28 30/34/28
f 37/41/29 38/42/29 28/32/29 33/37/29
f 39/43/30 42/46/30 45/49/30 44/48/30
f 42/46/31 43/47/31 46/50/31 45/49/31
f 44/48/32 45/49/32 57/63/32 54/60/32
f 45/49/33 46/50/33 47/51/33 57/63/33
f 40/44/34 48/52/34 51/56/34 50/55/34
f 48/52/35 49/53/35 52/57/35 51/56/35
f 50/55/36 51/56/36 46/50/36 43/47/36
f 51/56/37 52/57/37 47/51/37 46/50/37
f 41/45/38 53/59/38 56/62/38 55/61/38
f 53/59/39 54/60/39 57/63/39 56/62/39
f 55/61/40 56/62/40 52/58/40 49/54/40
f 56/62/41 57/63/41 47/51/41 52/58/41
f 58/64/42 61/67/42 64/70/42 63/69/42
f 61/67/43 62/68/43 65/71/43 64/70/43
f 63/69/44 64/70/44 76/84/44 73/81/44
f 64/70/45 65/71/45 66/72/45 76/84/45
f 59/65/46 67/73/46 70/77/46 69/76/46
f 67/73/47 68/75/47 71/78/47 70/77/47
f 69/76/48 70/77/48 65/71/48 62/68/48
f 70/77/49 71/78/49 66/72/49 65/71/49
f 60/66/50 72/80/50 75/83/50 74/82/50
f 72/80/51 73/81/51 76/84/51 75/83/51
f 74/82/52 75/83/52 71/79/52 68/74/52
f 75/83/53 76/84/53 66/72/53 71/79/53
f 77/85/54 80/88/54 83/91/54 82/90/54
f 80/88/55 81/89/55 84/92/55 83/91/55
f 82/90/56 83/91/56 95/108/56 92/105/56
f 83/91/57 84/92/57 85/93/57 95/108/57
f 78/86/58 86/96/58 89/100/58 88/99/58
f 86/96/59 87/98/59 90/101/59 89/100/59
f 88/99/60 89/100/60 84/92/60 81/89/60
f 89/100/61 90/101/61 85/94/61 84/92/61
f 79/87/62 91/103/62 94/107/62 93/106/62
f 91/103/63 92/104/63 95/109/63 94/107/63
f 93/106/64 94/107/64 90/102/64 87/97/64
f 94/107/65 95/109/65 85/95/65 90/102/65
f 96/110/66 99/113/66 102/116/66 101/115/66
f 99/113/67 100/114/67 103/117/67 102/116/67
f 101/115/68 102/116/68 114/133/68 111/130/68
f 102/116/69 103/117/69 104/118/69 114/133/69
f 97/111/70 105/121/70 108/125/70 107/124/70
f 105/121/71 106/123/71 109/126/71 108/125/71
f 107/124/72 108/125/72 103/117/72 100/114/72
f 108/125/73 109/126/73 104/119/73 103/117/73
f 98/112/74 110/128/74 113/132/74 112/131/74
f 110/128/75 111/129/75 114/134/75 113/132/75
f 112/131/76 113/132/76 109/127/76 106/122/76
f 113/132/77 114/134/77 104/120/77 109/127/77
f 115/135/78 118/138/78 121/142/78 120/141/78
f 118/138/79 119/140/79 122/143/79 121/142/79
f 120/141/80 121/142/80 133/160/80 130/157/80
f 121/142/81 122/143/81 123/145/81 133/160/81
f 116/136/82 124/148/82 127/152/82 126/151/82
f 124/148/83 125/150/83 128/153/83 127/152/83
f 126/151/84 127/152/84 122/144/84 119/139/84
f 127/152/85 128/153/85 123/146/85 122/144/85
f 117/137/86 129/155/86 132/159/86 131/158/86
f 129/155/87 130/156/87 133/161/87 132/159/87
f 131/158/88 132/159/88 128/154/88 125/149/88
f 132/159/89 133/161/89 123/147/89 128/154/89
f 134/162/90 137/165/90 140/169/90 139/168/90
f 137/165/91 138/166/91 141/170/91 140/169/91
f 139/168/92 140/169/92 152/187/92 149/183/92
f 140/169/93 141/170/93 142/172/93 152/187/93
f 135/163/94 143/175/94 146/179/94 145/178/94
f 143/175/95 144/176/95 147/180/95 146/179/95
f 145/178/96 146/179/96 141/171/96 138/167/96
f 146/179/97 147/180/97 142/173/97 141/171/97
f 136/164/98 148/182/98 151/186/98 150/185/98
f 148/182/99 149/184/99 152/188/99 151/186/99
f 150/185/100 151/186/100 147/181/100 144/177/100
f 151/186/101 152/188/101 142/174/101 147/181/101
f 98/112/102 134/162/102 139/168/102 110/128/102
f 110/128/103 139/168/103 149/183/103 111/129/103
f 111/130/104 149/184/104 148/182/104 101/115/104
f 101/115/105 148/182/105 136/164/105 96/110/105
f 20/22/106 98/112/106 112/131/106 23/25/106
f 23/25/107 112/131/107 106/122/107 24/26/107
f 24/27/108 106/123/108 105/121/108 31/35/108
f 31/35/109 105/121/109 97/111/109 21/23/109
f 3/3/110 22/24/110 36/40/110 15/17/110
f 15/17/111 36/40/111 30/34/111 16/18/111
f 16/18/112 30/34/112 29/33/112 6/7/112
f 6/7/113 29/33/113 21/23/113 1/1/113
f 135/163/114 116/136/114 126/151/114 143/175/114
f 143/175/115 126/151/115 119/139/115 144/176/115
f 144/177/116 119/140/116 118/138/116 150/185/116
f 150/185/117 118/138/117 115/135/117 136/164/117
f 41/45/118 59/65/118 69/76/118 53/59/118
f 53/59/119 69/76/119 62/68/119 54/60/119
f 54/60/120 62/68/120 61/67/120 44/48/120
f 44/48/121 61/67/121 58/64/121 39/43/121
f 77/85/122 97/111/122 107/124/122 80/88/122
f 80/88/123 107/124/123 100/114/123 81/89/123
f 81/89/124 100/114/124 99/113/124 88/99/124
f 88/99/125 99/113/125 96/110/125 78/86/125
f 40/44/126 117/137/126 131/158/126 48/52/126
f 48/52/127 131/158/127 125/149/127 49/53/127
f 49/54/128 125/150/128 124/148/128 55/61/128
f 55/61/129 124/148/129 116/136/129 41/45/129
f 2/2/130 40/44/130 50/55/130 10/12/130
f 10/12/131 50/55/131 43/47/131 11/13/131
f 11/13/132 43/47/132 42/46/132 17/19/132
f 17/19/133 42/46/133 39/43/133 3/3/133
f 134/162/134 60/66/134 74/82/134 137/165/134
f 137/165/135 74/82/135 68/74/135 138/166/135
f 138/167/136 68/75/136 67/73/136 145/178/136
f 145/178/137 67/73/137 59/65/137 135/163/137
f 117/137/138 79/87/138 93/106/138 129/155/138
f 129/155/139 93/106/139 87/97/139 130/156/139
f 130/157/140 87/98/140 86/96/140 120/141/140
f 120/141/141 86/96/141 78/86/141 115/135/141
f 79/87/142 2/2/142 12/14/142 91/103/142
f 91/103/143 12/14/143 5/5/143 92/104/143
f 92/105/144 5/6/144 4/4/144 82/90/144
f 82/90/145 4/4/145 1/1/145 77/85/145
f 60/66/146 20/22/146 25/28/146 72/80/146
f 72/80/147 25/28/147 35/39/147 73/81/147
f 73/81/148 35/39/148 34/38/148 63/69/148
f 63/69/149 34/38/149 22/24/149 58/64/149
f 97/111/150 77/85/150 1/1/150 21/23/150
